<svg width="30" height="29" viewBox="0 0 30 29" fill="none" xmlns="http://www.w3.org/2000/svg">
<path d="M10.0003 14.6607H20.0003M20.0003 14.6607L15.8337 10.4941M20.0003 14.6607L15.8337 18.8274M15.0003 27.9941C17.6374 27.9941 20.2153 27.2121 22.4079 25.747C24.6006 24.2819 26.3095 22.1994 27.3187 19.7631C28.3279 17.3268 28.5919 14.6459 28.0775 12.0595C27.563 9.47308 26.2931 7.09737 24.4284 5.23267C22.5637 3.36797 20.1879 2.09805 17.6015 1.58358C15.0151 1.06911 12.3342 1.3332 9.89788 2.34237C7.46153 3.35154 5.37915 5.06052 3.91406 7.25318C2.44898 9.44583 1.66699 12.0236 1.66699 14.6607C1.66699 18.1969 3.07175 21.5883 5.57223 24.0888C6.81035 25.3269 8.2802 26.309 9.89788 26.9791C11.5155 27.6491 13.2494 27.9941 15.0003 27.9941Z" stroke="#11111A" stroke-width="1.5" stroke-linecap="round" stroke-linejoin="round"/>
</svg>
