<svg width="25" height="24" viewBox="0 0 25 24" fill="none" xmlns="http://www.w3.org/2000/svg">
<path d="M13.4466 1.87604L16.1723 7.37889C16.2343 7.51856 16.3318 7.63955 16.4551 7.72978C16.5784 7.82002 16.7233 7.87636 16.8751 7.89318L22.8923 8.78461C23.0665 8.807 23.2308 8.8785 23.3659 8.99076C23.501 9.10302 23.6014 9.2514 23.6553 9.41857C23.7092 9.58575 23.7145 9.76481 23.6704 9.93486C23.6264 10.1049 23.5349 10.2589 23.4066 10.3789L19.0694 14.6818C18.9587 14.7852 18.8757 14.9146 18.8278 15.0583C18.7799 15.202 18.7686 15.3555 18.7951 15.5046L19.8409 21.556C19.8711 21.7299 19.852 21.9088 19.7856 22.0724C19.7192 22.2359 19.6083 22.3775 19.4654 22.4811C19.3225 22.5847 19.1534 22.6461 18.9773 22.6584C18.8013 22.6706 18.6253 22.6332 18.4694 22.5503L13.0523 19.6875C12.9136 19.6194 12.7611 19.584 12.6066 19.584C12.452 19.584 12.2996 19.6194 12.1609 19.6875L6.74371 22.5503C6.58787 22.6332 6.41189 22.6706 6.23582 22.6584C6.05974 22.6461 5.89064 22.5847 5.74774 22.4811C5.60484 22.3775 5.4939 22.2359 5.42752 22.0724C5.36115 21.9088 5.34201 21.7299 5.37229 21.556L6.418 15.436C6.4445 15.2869 6.43329 15.1335 6.38539 14.9898C6.33748 14.8461 6.25441 14.7166 6.14371 14.6132L1.75514 10.3789C1.62531 10.2556 1.534 10.0974 1.49228 9.92326C1.45056 9.74916 1.46022 9.5667 1.52009 9.39798C1.57996 9.22926 1.68747 9.08151 1.8296 8.97265C1.97172 8.86378 2.14237 8.79847 2.32086 8.78461L8.338 7.89318C8.48988 7.87636 8.6347 7.82002 8.75802 7.72978C8.88135 7.63955 8.97887 7.51856 9.04086 7.37889L11.7666 1.87604C11.8408 1.71577 11.9593 1.58007 12.1082 1.48498C12.257 1.38988 12.4299 1.33936 12.6066 1.33936C12.7832 1.33936 12.9561 1.38988 13.105 1.48498C13.2538 1.58007 13.3723 1.71577 13.4466 1.87604Z" fill="#FA5A00" stroke="#FA5A00" stroke-width="1.71429" stroke-linecap="round" stroke-linejoin="round"/>
</svg>
