<svg width="25" height="24" viewBox="0 0 25 24" fill="none" xmlns="http://www.w3.org/2000/svg">
<path d="M12.9124 1.87604L15.6381 7.37889C15.7001 7.51856 15.7976 7.63955 15.9209 7.72978C16.0443 7.82002 16.1891 7.87636 16.341 7.89318L22.3581 8.78461C22.5323 8.807 22.6966 8.8785 22.8317 8.99076C22.9668 9.10302 23.0672 9.2514 23.1211 9.41857C23.175 9.58575 23.1803 9.76481 23.1362 9.93486C23.0922 10.1049 23.0007 10.2589 22.8724 10.3789L18.5353 14.6818C18.4246 14.7852 18.3415 14.9146 18.2936 15.0583C18.2457 15.202 18.2345 15.3555 18.261 15.5046L19.3067 21.556C19.337 21.7299 19.3178 21.9088 19.2514 22.0724C19.1851 22.2359 19.0741 22.3775 18.9312 22.4811C18.7883 22.5847 18.6192 22.6461 18.4431 22.6584C18.2671 22.6706 18.0911 22.6332 17.9353 22.5503L12.5181 19.6875C12.3794 19.6194 12.2269 19.584 12.0724 19.584C11.9179 19.584 11.7654 19.6194 11.6267 19.6875L6.20953 22.5503C6.05369 22.6332 5.87771 22.6706 5.70164 22.6584C5.52556 22.6461 5.35646 22.5847 5.21356 22.4811C5.07066 22.3775 4.95972 22.2359 4.89334 22.0724C4.82697 21.9088 4.80783 21.7299 4.83811 21.556L5.88382 15.436C5.91032 15.2869 5.89911 15.1335 5.85121 14.9898C5.8033 14.8461 5.72023 14.7166 5.60954 14.6132L1.22096 10.3789C1.09113 10.2556 0.999821 10.0974 0.958102 9.92326C0.916383 9.74916 0.926044 9.5667 0.985913 9.39798C1.04578 9.22926 1.15329 9.08151 1.29542 8.97265C1.43754 8.86378 1.60819 8.79847 1.78668 8.78461L7.80382 7.89318C7.9557 7.87636 8.10052 7.82002 8.22385 7.72978C8.34717 7.63955 8.44469 7.51856 8.50668 7.37889L11.2324 1.87604C11.3066 1.71577 11.4251 1.58007 11.574 1.48498C11.7228 1.38988 11.8958 1.33936 12.0724 1.33936C12.249 1.33936 12.422 1.38988 12.5708 1.48498C12.7196 1.58007 12.8382 1.71577 12.9124 1.87604Z" stroke="#FA5A00" stroke-width="1.71429" stroke-linecap="round" stroke-linejoin="round"/>
</svg>
