<svg width="36" height="40" viewBox="0 0 36 40" fill="none" xmlns="http://www.w3.org/2000/svg">
<path d="M22.5 33.5C22.5 35.9853 20.4853 38 18 38C15.5147 38 13.5 35.9853 13.5 33.5M10.125 33.5C5.77576 33.5 2.25 29.9742 2.25 25.625C2.25 23.8572 2.8325 22.2254 3.81604 20.9112C5.39191 18.8054 6.75 15.8801 6.75 13.25C6.75 7.0368 11.7868 2 18 2C24.2132 2 29.25 7.0368 29.25 13.25C29.25 15.8801 30.6081 18.8054 32.184 20.9112C33.1675 22.2254 33.75 23.8572 33.75 25.625C33.75 29.9742 30.2242 33.5 25.875 33.5H10.125Z" stroke="#11111A" stroke-width="3" stroke-linecap="round" stroke-linejoin="round"/>
</svg>
