<svg width="46" height="45" viewBox="0 0 46 45" fill="none" xmlns="http://www.w3.org/2000/svg">
<path d="M41.5625 10.6563H33.9329C33.7102 7.90959 32.4619 5.34735 30.4362 3.47916C28.4104 1.61098 25.7557 0.57373 23 0.57373C20.2443 0.57373 17.5896 1.61098 15.5638 3.47916C13.5381 5.34735 12.2898 7.90959 12.0671 10.6563H4.4375C3.31862 10.6563 2.24556 11.1007 1.45439 11.8919C0.663224 12.6831 0.21875 13.7561 0.21875 14.875V40.1875C0.21875 41.3064 0.663224 42.3795 1.45439 43.1706C2.24556 43.9618 3.31862 44.4063 4.4375 44.4063H41.5625C42.6814 44.4063 43.7544 43.9618 44.5456 43.1706C45.3368 42.3795 45.7812 41.3064 45.7812 40.1875V14.875C45.7812 13.7561 45.3368 12.6831 44.5456 11.8919C43.7544 11.1007 42.6814 10.6563 41.5625 10.6563ZM23 5.59376C24.4201 5.59391 25.7927 6.10575 26.8662 7.0355C27.9397 7.96526 28.6422 9.25068 28.8451 10.6563H17.1549C17.3578 9.25068 18.0603 7.96526 19.1338 7.0355C20.2073 6.10575 21.5799 5.59391 23 5.59376ZM40.7188 39.3438H5.28125V15.7188H12.0312V18.25C12.0312 18.9213 12.2979 19.5652 12.7726 20.0399C13.2473 20.5146 13.8912 20.7813 14.5625 20.7813C15.2338 20.7813 15.8777 20.5146 16.3524 20.0399C16.8271 19.5652 17.0938 18.9213 17.0938 18.25V15.7188H28.9062V18.25C28.9062 18.9213 29.1729 19.5652 29.6476 20.0399C30.1223 20.5146 30.7662 20.7813 31.4375 20.7813C32.1088 20.7813 32.7527 20.5146 33.2274 20.0399C33.7021 19.5652 33.9688 18.9213 33.9688 18.25V15.7188H40.7188V39.3438Z" fill="#32324D"/>
</svg>
