<svg width="25" height="24" viewBox="0 0 25 24" fill="none" xmlns="http://www.w3.org/2000/svg">
<path d="M12.9124 1.53668L15.6381 7.03954C15.7001 7.17921 15.7976 7.30019 15.9209 7.39043C16.0443 7.48066 16.1891 7.537 16.341 7.55382L22.3581 8.44525C22.5323 8.46765 22.6966 8.53915 22.8317 8.6514C22.9668 8.76366 23.0672 8.91204 23.1211 9.07922C23.175 9.24639 23.1803 9.42546 23.1362 9.5955C23.0922 9.76555 23.0007 9.91956 22.8724 10.0395L18.5353 14.3424C18.4246 14.4458 18.3415 14.5753 18.2936 14.719C18.2457 14.8627 18.2345 15.0161 18.261 15.1653L19.3067 21.2167C19.337 21.3906 19.3178 21.5695 19.2514 21.733C19.1851 21.8965 19.0741 22.0382 18.9312 22.1418C18.7883 22.2454 18.6192 22.3068 18.4431 22.319C18.2671 22.3312 18.0911 22.2938 17.9353 22.211L12.5181 19.3481C12.3794 19.28 12.2269 19.2446 12.0724 19.2446C11.9179 19.2446 11.7654 19.28 11.6267 19.3481L6.20953 22.211C6.05369 22.2938 5.87771 22.3312 5.70164 22.319C5.52556 22.3068 5.35646 22.2454 5.21356 22.1418C5.07066 22.0382 4.95972 21.8965 4.89334 21.733C4.82697 21.5695 4.80783 21.3906 4.83811 21.2167L5.88382 15.0967C5.91032 14.9475 5.89911 14.7941 5.85121 14.6504C5.8033 14.5067 5.72023 14.3772 5.60954 14.2738L1.22096 10.0395C1.09113 9.91627 0.999821 9.75801 0.958102 9.58391C0.916383 9.40981 0.926044 9.22734 0.985913 9.05862C1.04578 8.8899 1.15329 8.74216 1.29542 8.63329C1.43754 8.52443 1.60819 8.45911 1.78668 8.44525L7.80382 7.55382C7.9557 7.537 8.10052 7.48066 8.22385 7.39043C8.34717 7.30019 8.44469 7.17921 8.50668 7.03954L11.2324 1.53668C11.3066 1.37641 11.4251 1.24072 11.574 1.14562C11.7228 1.05053 11.8958 1 12.0724 1C12.249 1 12.422 1.05053 12.5708 1.14562C12.7196 1.24072 12.8382 1.37641 12.9124 1.53668Z" stroke="#FA5A00" stroke-width="1.71429" stroke-linecap="round" stroke-linejoin="round"/>
</svg>
