<svg width="25" height="24" viewBox="0 0 25 24" fill="none" xmlns="http://www.w3.org/2000/svg">
<path d="M12.9798 1.53668L15.7055 7.03954C15.7675 7.17921 15.865 7.30019 15.9883 7.39043C16.1116 7.48066 16.2565 7.537 16.4083 7.55382L22.4255 8.44525C22.5997 8.46765 22.764 8.53915 22.8991 8.6514C23.0342 8.76366 23.1346 8.91204 23.1885 9.07922C23.2424 9.24639 23.2477 9.42546 23.2036 9.5955C23.1596 9.76555 23.0681 9.91956 22.9398 10.0395L18.6026 14.3424C18.4919 14.4458 18.4089 14.5753 18.361 14.719C18.3131 14.8627 18.3018 15.0161 18.3283 15.1653L19.3741 21.2167C19.4043 21.3906 19.3852 21.5695 19.3188 21.733C19.2525 21.8965 19.1415 22.0382 18.9986 22.1418C18.8557 22.2454 18.6866 22.3068 18.5105 22.319C18.3345 22.3312 18.1585 22.2938 18.0026 22.211L12.5855 19.3481C12.4468 19.28 12.2943 19.2446 12.1398 19.2446C11.9852 19.2446 11.8328 19.28 11.6941 19.3481L6.27692 22.211C6.12107 22.2938 5.9451 22.3312 5.76902 22.319C5.59295 22.3068 5.42384 22.2454 5.28094 22.1418C5.13805 22.0382 5.0271 21.8965 4.96073 21.733C4.89435 21.5695 4.87521 21.3906 4.90549 21.2167L5.9512 15.0967C5.97771 14.9475 5.9665 14.7941 5.91859 14.6504C5.87069 14.5067 5.78761 14.3772 5.67692 14.2738L1.28835 10.0395C1.15851 9.91627 1.0672 9.75801 1.02548 9.58391C0.983766 9.40981 0.993427 9.22734 1.0533 9.05862C1.11316 8.8899 1.22067 8.74216 1.3628 8.63329C1.50492 8.52443 1.67557 8.45911 1.85406 8.44525L7.8712 7.55382C8.02309 7.537 8.16791 7.48066 8.29123 7.39043C8.41455 7.30019 8.51207 7.17921 8.57406 7.03954L11.2998 1.53668C11.374 1.37641 11.4925 1.24072 11.6414 1.14562C11.7902 1.05053 11.9632 1 12.1398 1C12.3164 1 12.4893 1.05053 12.6382 1.14562C12.787 1.24072 12.9055 1.37641 12.9798 1.53668Z" fill="#FA5A00" stroke="#FA5A00" stroke-width="1.71429" stroke-linecap="round" stroke-linejoin="round"/>
</svg>
