<svg width="25" height="21" viewBox="0 0 25 21" fill="none" xmlns="http://www.w3.org/2000/svg">
<path d="M22.75 8.80035H5.66669L11.2871 3.17993C11.4472 3.02112 11.5743 2.83217 11.661 2.624C11.7478 2.41582 11.7924 2.19253 11.7924 1.96701C11.7924 1.74149 11.7478 1.5182 11.661 1.31003C11.5743 1.10185 11.4472 0.912906 11.2871 0.754095C10.967 0.435916 10.534 0.257324 10.0827 0.257324C9.63141 0.257324 9.19843 0.435916 8.87835 0.754095L1.5496 8.09993C0.907975 8.73773 0.545501 9.60398 0.541687 10.5087C0.550001 11.4074 0.91213 12.2667 1.5496 12.9003L8.87835 20.2462C9.03764 20.4043 9.22651 20.5296 9.43419 20.6147C9.64188 20.6999 9.8643 20.7433 10.0888 20.7425C10.3132 20.7418 10.5353 20.6968 10.7424 20.6101C10.9495 20.5235 11.1375 20.3969 11.2956 20.2376C11.4538 20.0784 11.579 19.8895 11.6642 19.6818C11.7494 19.4741 11.7928 19.2517 11.792 19.0272C11.7912 18.8028 11.7462 18.5806 11.6596 18.3736C11.573 18.1665 11.4464 17.9785 11.2871 17.8203L5.66669 12.217H22.75C23.2031 12.217 23.6376 12.037 23.958 11.7167C24.2784 11.3963 24.4584 10.9618 24.4584 10.5087C24.4584 10.0556 24.2784 9.62108 23.958 9.3007C23.6376 8.98033 23.2031 8.80035 22.75 8.80035Z" fill="black"/>
</svg>
