<svg width="11" height="10" viewBox="0 0 11 10" fill="none" xmlns="http://www.w3.org/2000/svg">
<path fill-rule="evenodd" clip-rule="evenodd" d="M3.80328 0.663641C3.94125 0.372923 4.23837 0.170898 4.5828 0.170898H6.55377C6.8977 0.170898 7.19483 0.372923 7.33329 0.663641C7.66983 0.666597 7.93246 0.681872 8.16701 0.773522C8.447 0.883045 8.6905 1.06917 8.86966 1.31061C9.0505 1.55353 9.13525 1.86593 9.25203 2.29511L9.27026 2.36212L9.56098 3.4299C9.75499 3.52742 9.92497 3.66677 10.0586 3.83789C10.3651 4.2306 10.4193 4.69822 10.3651 5.23432C10.3119 5.75466 10.1483 6.41 9.94335 7.23042L9.93004 7.28216C9.80045 7.80102 9.695 8.22231 9.57034 8.55097C9.43927 8.89392 9.27371 9.17478 9.00024 9.38814C8.72726 9.6015 8.41437 9.69364 8.05023 9.73799C7.70087 9.77938 7.26677 9.77938 6.73214 9.77938H4.40443C3.8698 9.77938 3.4352 9.77938 3.08634 9.73749C2.72171 9.69413 2.40931 9.6015 2.13584 9.38765C1.86286 9.17478 1.6973 8.89392 1.56623 8.55097C1.44107 8.22231 1.33612 7.80102 1.20653 7.28216L1.19322 7.23042C0.988244 6.41 0.82416 5.75466 0.771437 5.23481C0.717235 4.69772 0.771437 4.2306 1.07743 3.83789C1.21688 3.65952 1.38392 3.52746 1.5751 3.4299L1.86582 2.36212L1.88454 2.29511C2.00132 1.86593 2.08607 1.55353 2.26691 1.31012C2.44613 1.06886 2.68963 0.88291 2.96956 0.773522C3.20411 0.681872 3.46625 0.666105 3.80328 0.663641ZM3.80377 1.40374C3.47758 1.40719 3.347 1.41951 3.2386 1.46188C3.0878 1.52086 2.95666 1.62109 2.86017 1.75112C2.77345 1.8679 2.7222 2.031 2.57931 2.55676L2.40488 3.19584C2.91634 3.12735 3.57662 3.12735 4.39654 3.12735H6.73953C7.55995 3.12735 8.22022 3.12735 8.7312 3.19584L8.55726 2.55676C8.41387 2.031 8.36312 1.8679 8.2764 1.75112C8.17991 1.62109 8.04877 1.52086 7.89797 1.46188C7.78957 1.41951 7.6585 1.40719 7.3323 1.40374C7.26227 1.5509 7.15196 1.67521 7.01417 1.76224C6.87638 1.84928 6.71675 1.89548 6.55377 1.8955H4.5828C4.41982 1.89548 4.26019 1.84928 4.1224 1.76224C3.9846 1.67521 3.8743 1.5509 3.80427 1.40374H3.80377ZM4.5828 0.910012C4.55013 0.910012 4.5188 0.922991 4.49569 0.946092C4.47259 0.969194 4.45961 1.00053 4.45961 1.0332C4.45961 1.06587 4.47259 1.0972 4.49569 1.1203C4.5188 1.14341 4.55013 1.15638 4.5828 1.15638H6.55377C6.58644 1.15638 6.61777 1.14341 6.64087 1.1203C6.66398 1.0972 6.67695 1.06587 6.67695 1.0332C6.67695 1.00053 6.66398 0.969194 6.64087 0.946092C6.61777 0.922991 6.58644 0.910012 6.55377 0.910012H4.5828ZM2.46401 3.93348C2.01561 3.99852 1.79831 4.11678 1.66084 4.29318C1.52287 4.46909 1.46128 4.70807 1.5071 5.15942C1.55391 5.62063 1.7042 6.22375 1.91805 7.08112C2.05503 7.62708 2.14964 8.0055 2.25804 8.28834C2.36152 8.56132 2.46351 8.70569 2.59163 8.80572C2.71925 8.90525 2.88382 8.96882 3.17454 9.0038C3.47511 9.03977 3.86438 9.04026 4.42808 9.04026H6.70948C7.27268 9.04026 7.66293 9.03977 7.96301 9.0038C8.25373 8.96931 8.41831 8.90525 8.54593 8.80572C8.67404 8.70569 8.77555 8.56132 8.88001 8.28834C8.98742 8.0055 9.08252 7.62708 9.21901 7.08112C9.43336 6.22375 9.58364 5.62063 9.62996 5.15942C9.67628 4.70807 9.61419 4.4686 9.47672 4.29269C9.33924 4.11678 9.12194 3.99852 8.67306 3.93348C8.2148 3.86745 7.59296 3.86647 6.70948 3.86647H4.42808C3.54459 3.86647 2.92275 3.86745 2.4645 3.93348H2.46401Z" fill="#FF422E"/>
</svg>
