<svg width="8" height="14" viewBox="0 0 8 14" fill="none" xmlns="http://www.w3.org/2000/svg">
<path d="M0.497149 13.1647C0.32392 12.9914 0.237305 12.7863 0.237305 12.5494C0.237305 12.3124 0.32392 12.1075 0.497149 11.9347L5.57278 6.8591L0.479826 1.76614C0.318145 1.60446 0.237305 1.40236 0.237305 1.15984C0.237305 0.917317 0.32392 0.709442 0.497149 0.536212C0.670379 0.362982 0.875483 0.276367 1.11246 0.276367C1.34944 0.276367 1.55431 0.362982 1.72708 0.536212L7.5476 6.37406C7.61689 6.44335 7.66609 6.51841 7.69519 6.59925C7.72429 6.68009 7.73862 6.76671 7.73815 6.8591C7.73815 6.95149 7.7236 7.0381 7.6945 7.11894C7.6654 7.19978 7.61643 7.27485 7.5476 7.34414L1.70976 13.182C1.54808 13.3437 1.34875 13.4245 1.11177 13.4245C0.87479 13.4245 0.669917 13.3379 0.497149 13.1647Z" fill="white"/>
</svg>
