<svg width="284" height="116" viewBox="0 0 284 116" fill="none" xmlns="http://www.w3.org/2000/svg">
<g filter="url(#filter0_d_619_27527)">
<rect width="268" height="100" transform="translate(8 7)" fill="white"/>
<path d="M38.3574 32.8572C38.3574 35.0611 39.0109 37.2154 40.2353 39.0479C41.4597 40.8803 43.2 42.3085 45.2361 43.1519C47.2722 43.9953 49.5126 44.2159 51.6741 43.786C53.8356 43.356 55.8211 42.2948 57.3795 40.7364C58.9378 39.1781 59.9991 37.1926 60.429 35.0311C60.859 32.8696 60.6383 30.6291 59.7949 28.593C58.9516 26.5569 57.5234 24.8167 55.6909 23.5923C53.8585 22.3679 51.7041 21.7144 49.5003 21.7144C46.3082 21.7108 43.2379 22.939 40.9289 25.1429" stroke="#FA5A00" stroke-width="2" stroke-linecap="round" stroke-linejoin="round"/>
<path d="M41.7859 21.7144L40.9287 25.1429L44.3573 26.0001" stroke="#FA5A00" stroke-width="2" stroke-linecap="round" stroke-linejoin="round"/>
<path d="M49.5001 26.8574V33.7146L45.043 35.9431" stroke="#FA5A00" stroke-width="2" stroke-linecap="round" stroke-linejoin="round"/>
<path d="M27.7436 79V77.9773L31.5845 73.7727C32.0353 73.2803 32.4065 72.8523 32.6982 72.4886C32.9898 72.1212 33.2057 71.7765 33.3459 71.4545C33.4898 71.1288 33.5618 70.7879 33.5618 70.4318C33.5618 70.0227 33.4633 69.6686 33.2663 69.3693C33.0732 69.0701 32.808 68.839 32.4709 68.6761C32.1338 68.5133 31.755 68.4318 31.3345 68.4318C30.8875 68.4318 30.4974 68.5246 30.1641 68.7102C29.8345 68.892 29.5788 69.1477 29.397 69.4773C29.219 69.8068 29.13 70.1932 29.13 70.6364H27.7891C27.7891 69.9545 27.9463 69.3561 28.2607 68.8409C28.575 68.3258 29.0031 67.9242 29.5447 67.6364C30.0902 67.3485 30.7019 67.2045 31.38 67.2045C32.0618 67.2045 32.666 67.3485 33.1925 67.6364C33.719 67.9242 34.1319 68.3125 34.4311 68.8011C34.7304 69.2898 34.88 69.8333 34.88 70.4318C34.88 70.8598 34.8023 71.2784 34.647 71.6875C34.4955 72.0928 34.2304 72.5455 33.8516 73.0455C33.4766 73.5417 32.9557 74.1477 32.2891 74.8636L29.6754 77.6591V77.75H35.0845V79H27.7436ZM41.2266 79.1591C40.3705 79.1591 39.6413 78.9261 39.0391 78.4602C38.4368 77.9905 37.9766 77.3106 37.6584 76.4205C37.3402 75.5265 37.1811 74.447 37.1811 73.1818C37.1811 71.9242 37.3402 70.8504 37.6584 69.9602C37.9804 69.0663 38.4425 68.3845 39.0447 67.9148C39.6508 67.4413 40.3781 67.2045 41.2266 67.2045C42.075 67.2045 42.8004 67.4413 43.4027 67.9148C44.0088 68.3845 44.4709 69.0663 44.7891 69.9602C45.111 70.8504 45.272 71.9242 45.272 73.1818C45.272 74.447 45.1129 75.5265 44.7947 76.4205C44.4766 77.3106 44.0163 77.9905 43.4141 78.4602C42.8118 78.9261 42.0826 79.1591 41.2266 79.1591ZM41.2266 77.9091C42.075 77.9091 42.7341 77.5 43.2038 76.6818C43.6735 75.8636 43.9084 74.697 43.9084 73.1818C43.9084 72.1742 43.8004 71.3163 43.5845 70.608C43.3724 69.8996 43.0656 69.3598 42.6641 68.9886C42.2663 68.6174 41.7872 68.4318 41.2266 68.4318C40.3857 68.4318 39.7285 68.8466 39.255 69.6761C38.7815 70.5019 38.5447 71.6705 38.5447 73.1818C38.5447 74.1894 38.6508 75.0455 38.8629 75.75C39.075 76.4545 39.38 76.9905 39.7777 77.358C40.1792 77.7254 40.6622 77.9091 41.2266 77.9091ZM52.4538 72.5568V73.8068H47.3629V72.5568H52.4538ZM54.2436 79V77.9773L58.0845 73.7727C58.5353 73.2803 58.9065 72.8523 59.1982 72.4886C59.4898 72.1212 59.7057 71.7765 59.8459 71.4545C59.9898 71.1288 60.0618 70.7879 60.0618 70.4318C60.0618 70.0227 59.9633 69.6686 59.7663 69.3693C59.5732 69.0701 59.308 68.839 58.9709 68.6761C58.6338 68.5133 58.255 68.4318 57.8345 68.4318C57.3875 68.4318 56.9974 68.5246 56.6641 68.7102C56.3345 68.892 56.0788 69.1477 55.897 69.4773C55.719 69.8068 55.63 70.1932 55.63 70.6364H54.2891C54.2891 69.9545 54.4463 69.3561 54.7607 68.8409C55.075 68.3258 55.5031 67.9242 56.0447 67.6364C56.5902 67.3485 57.2019 67.2045 57.88 67.2045C58.5618 67.2045 59.166 67.3485 59.6925 67.6364C60.219 67.9242 60.6319 68.3125 60.9311 68.8011C61.2304 69.2898 61.38 69.8333 61.38 70.4318C61.38 70.8598 61.3023 71.2784 61.147 71.6875C60.9955 72.0928 60.7304 72.5455 60.3516 73.0455C59.9766 73.5417 59.4557 74.1477 58.7891 74.8636L56.1754 77.6591V77.75H61.5845V79H54.2436ZM67.5675 79.1591C66.9008 79.1591 66.3004 79.0265 65.7663 78.7614C65.2322 78.4962 64.8042 78.1326 64.4822 77.6705C64.1603 77.2083 63.9841 76.6818 63.9538 76.0909H65.3175C65.3705 76.6174 65.6091 77.053 66.0334 77.3977C66.4614 77.7386 66.9728 77.9091 67.5675 77.9091C68.0447 77.9091 68.469 77.7973 68.8402 77.5739C69.2152 77.3504 69.5088 77.0436 69.7209 76.6534C69.9368 76.2595 70.0447 75.8144 70.0447 75.3182C70.0447 74.8106 69.933 74.358 69.7095 73.9602C69.4898 73.5587 69.1868 73.2424 68.8004 73.0114C68.4141 72.7803 67.9728 72.6629 67.4766 72.6591C67.1205 72.6553 66.755 72.7102 66.38 72.8239C66.005 72.9337 65.6963 73.0758 65.4538 73.25L64.1357 73.0909L64.8402 67.3636H70.8857V68.6136H66.022L65.6129 72.0455H65.6811C65.9197 71.8561 66.219 71.6989 66.5788 71.5739C66.9387 71.4489 67.3137 71.3864 67.7038 71.3864C68.416 71.3864 69.0504 71.5568 69.6072 71.8977C70.1679 72.2348 70.6072 72.697 70.9254 73.2841C71.2474 73.8712 71.4084 74.5417 71.4084 75.2955C71.4084 76.0379 71.2417 76.7008 70.9084 77.2841C70.5788 77.8636 70.1243 78.322 69.5447 78.6591C68.9652 78.9924 68.3061 79.1591 67.5675 79.1591ZM33.0163 96V87.2727H34.3118V88.6364H34.4254C34.6072 88.1705 34.9008 87.8087 35.3061 87.5511C35.7114 87.2898 36.1982 87.1591 36.7663 87.1591C37.3421 87.1591 37.8213 87.2898 38.2038 87.5511C38.5902 87.8087 38.8913 88.1705 39.1072 88.6364H39.1982C39.4216 88.1856 39.7569 87.8277 40.2038 87.5625C40.6508 87.2936 41.1868 87.1591 41.8118 87.1591C42.5921 87.1591 43.2304 87.4034 43.7266 87.892C44.2228 88.3769 44.4709 89.1326 44.4709 90.1591V96H43.13V90.1591C43.13 89.5152 42.9538 89.0549 42.6016 88.7784C42.2493 88.5019 41.8345 88.3636 41.3572 88.3636C40.7436 88.3636 40.2682 88.5492 39.9311 88.9205C39.594 89.2879 39.4254 89.7538 39.4254 90.3182V96H38.0618V90.0227C38.0618 89.5265 37.9008 89.1269 37.5788 88.8239C37.2569 88.517 36.8421 88.3636 36.3345 88.3636C35.986 88.3636 35.6603 88.4564 35.3572 88.642C35.058 88.8277 34.8156 89.0852 34.63 89.4148C34.4482 89.7405 34.3572 90.1174 34.3572 90.5455V96H33.0163ZM46.9226 96V87.2727H48.2635V96H46.9226ZM47.6044 85.8182C47.343 85.8182 47.1177 85.7292 46.9283 85.5511C46.7427 85.3731 46.6499 85.1591 46.6499 84.9091C46.6499 84.6591 46.7427 84.4451 46.9283 84.267C47.1177 84.089 47.343 84 47.6044 84C47.8658 84 48.0893 84.089 48.2749 84.267C48.4643 84.4451 48.5589 84.6591 48.5589 84.9091C48.5589 85.1591 48.4643 85.3731 48.2749 85.5511C48.0893 85.7292 47.8658 85.8182 47.6044 85.8182ZM52.0604 90.75V96H50.7195V87.2727H52.0149V88.6364H52.1286C52.3331 88.1932 52.6437 87.8371 53.0604 87.5682C53.477 87.2955 54.0149 87.1591 54.674 87.1591C55.2649 87.1591 55.782 87.2803 56.2251 87.5227C56.6683 87.7614 57.013 88.125 57.2592 88.6136C57.5054 89.0985 57.6286 89.7121 57.6286 90.4545V96H56.2876V90.5455C56.2876 89.8598 56.1096 89.3258 55.7536 88.9432C55.3975 88.5568 54.9089 88.3636 54.2876 88.3636C53.8596 88.3636 53.477 88.4564 53.1399 88.642C52.8066 88.8277 52.5433 89.0985 52.3501 89.4545C52.157 89.8106 52.0604 90.2424 52.0604 90.75ZM66.2607 89.2273L65.0561 89.5682C64.9804 89.3674 64.8686 89.1723 64.7209 88.983C64.5769 88.7898 64.38 88.6307 64.13 88.5057C63.88 88.3807 63.5599 88.3182 63.1697 88.3182C62.6357 88.3182 62.1906 88.4413 61.8345 88.6875C61.4822 88.9299 61.3061 89.2386 61.3061 89.6136C61.3061 89.947 61.4273 90.2102 61.6697 90.4034C61.9122 90.5966 62.291 90.7576 62.8061 90.8864L64.1016 91.2045C64.8819 91.3939 65.4633 91.6837 65.8459 92.0739C66.2285 92.4602 66.4197 92.9583 66.4197 93.5682C66.4197 94.0682 66.2758 94.5152 65.9879 94.9091C65.7038 95.303 65.3061 95.6136 64.7947 95.8409C64.2834 96.0682 63.6887 96.1818 63.0107 96.1818C62.1205 96.1818 61.3838 95.9886 60.8004 95.6023C60.2171 95.2159 59.8478 94.6515 59.6925 93.9091L60.9652 93.5909C61.0864 94.0606 61.3156 94.4129 61.6527 94.6477C61.9936 94.8826 62.4387 95 62.9879 95C63.6129 95 64.1091 94.8674 64.4766 94.6023C64.8478 94.3333 65.0334 94.0114 65.0334 93.6364C65.0334 93.3333 64.9273 93.0795 64.7152 92.875C64.5031 92.6667 64.1773 92.5114 63.7379 92.4091L62.2834 92.0682C61.4841 91.8788 60.897 91.5852 60.522 91.1875C60.1508 90.786 59.9652 90.2841 59.9652 89.6818C59.9652 89.1894 60.1035 88.7538 60.38 88.375C60.6603 87.9962 61.041 87.6989 61.522 87.483C62.0069 87.267 62.5561 87.1591 63.1697 87.1591C64.0334 87.1591 64.7114 87.3485 65.2038 87.7273C65.7 88.1061 66.0523 88.6061 66.2607 89.2273Z" fill="black"/>
<g clip-path="url(#clip0_619_27527)">
<path d="M131.277 37.0284L135.632 30.0684C135.8 29.7934 136.038 29.5667 136.32 29.4104C136.602 29.2542 136.92 29.1738 137.243 29.177C137.497 29.1678 137.751 29.2097 137.988 29.3002C138.226 29.3906 138.443 29.5278 138.627 29.7036C138.811 29.8794 138.957 30.0902 139.058 30.3237C139.159 30.5571 139.212 30.8084 139.214 31.0627V36.0513H146.74C147.018 36.0603 147.291 36.1281 147.541 36.2502C147.791 36.3723 148.013 36.5459 148.191 36.7596C148.369 36.9734 148.5 37.2224 148.575 37.4903C148.65 37.7582 148.667 38.039 148.626 38.3142L147.254 47.1599C147.196 47.6326 146.967 48.0677 146.61 48.3834C146.253 48.6991 145.794 48.8736 145.317 48.8742H134.072C133.536 48.8763 133.008 48.753 132.529 48.5142L131.294 47.897" stroke="#FA5A00" stroke-width="2" stroke-linecap="round" stroke-linejoin="round"/>
<path d="M131.277 37.0283V47.8455" stroke="#FA5A00" stroke-width="2" stroke-linecap="round" stroke-linejoin="round"/>
<path d="M127.215 37.0283H131.277V47.8455H127.215C126.987 47.8455 126.769 47.7552 126.608 47.5944C126.448 47.4337 126.357 47.2156 126.357 46.9883V37.8855C126.357 37.6581 126.448 37.4401 126.608 37.2794C126.769 37.1186 126.987 37.0283 127.215 37.0283Z" stroke="#FA5A00" stroke-width="2" stroke-linecap="round" stroke-linejoin="round"/>
</g>
<path d="M126.002 90.1591C125.222 90.1591 124.532 90.0208 123.934 89.7443C123.339 89.464 122.875 89.0795 122.542 88.5909C122.209 88.0985 122.044 87.5379 122.048 86.9091C122.044 86.4167 122.14 85.9621 122.337 85.5455C122.534 85.125 122.803 84.7746 123.144 84.4943C123.489 84.2102 123.873 84.0303 124.298 83.9545V83.8864C123.741 83.7424 123.298 83.4299 122.968 82.9489C122.638 82.464 122.476 81.9129 122.479 81.2955C122.476 80.7045 122.625 80.1761 122.928 79.7102C123.231 79.2443 123.648 78.8769 124.178 78.608C124.712 78.339 125.32 78.2045 126.002 78.2045C126.676 78.2045 127.279 78.339 127.809 78.608C128.339 78.8769 128.756 79.2443 129.059 79.7102C129.366 80.1761 129.521 80.7045 129.525 81.2955C129.521 81.9129 129.353 82.464 129.019 82.9489C128.69 83.4299 128.252 83.7424 127.707 83.8864V83.9545C128.127 84.0303 128.506 84.2102 128.843 84.4943C129.18 84.7746 129.449 85.125 129.65 85.5455C129.851 85.9621 129.953 86.4167 129.957 86.9091C129.953 87.5379 129.782 88.0985 129.445 88.5909C129.112 89.0795 128.648 89.464 128.053 89.7443C127.462 90.0208 126.779 90.1591 126.002 90.1591ZM126.002 88.9091C126.529 88.9091 126.983 88.8239 127.366 88.6534C127.748 88.483 128.044 88.2424 128.252 87.9318C128.46 87.6212 128.567 87.2576 128.57 86.8409C128.567 86.4015 128.453 86.0133 128.229 85.6761C128.006 85.339 127.701 85.0739 127.315 84.8807C126.932 84.6875 126.495 84.5909 126.002 84.5909C125.506 84.5909 125.063 84.6875 124.673 84.8807C124.286 85.0739 123.981 85.339 123.758 85.6761C123.538 86.0133 123.43 86.4015 123.434 86.8409C123.43 87.2576 123.531 87.6212 123.735 87.9318C123.943 88.2424 124.241 88.483 124.627 88.6534C125.013 88.8239 125.472 88.9091 126.002 88.9091ZM126.002 83.3864C126.419 83.3864 126.788 83.303 127.11 83.1364C127.436 82.9697 127.692 82.7367 127.877 82.4375C128.063 82.1383 128.157 81.7879 128.161 81.3864C128.157 80.9924 128.065 80.6496 127.883 80.358C127.701 80.0625 127.449 79.8352 127.127 79.6761C126.805 79.5133 126.43 79.4318 126.002 79.4318C125.567 79.4318 125.186 79.5133 124.86 79.6761C124.534 79.8352 124.282 80.0625 124.104 80.358C123.926 80.6496 123.839 80.9924 123.843 81.3864C123.839 81.7879 123.928 82.1383 124.11 82.4375C124.296 82.7367 124.551 82.9697 124.877 83.1364C125.203 83.303 125.578 83.3864 126.002 83.3864ZM135.93 90.1591C135.074 90.1591 134.344 89.9261 133.742 89.4602C133.14 88.9905 132.68 88.3106 132.362 87.4205C132.043 86.5265 131.884 85.447 131.884 84.1818C131.884 82.9242 132.043 81.8504 132.362 80.9602C132.683 80.0663 133.146 79.3845 133.748 78.9148C134.354 78.4413 135.081 78.2045 135.93 78.2045C136.778 78.2045 137.504 78.4413 138.106 78.9148C138.712 79.3845 139.174 80.0663 139.492 80.9602C139.814 81.8504 139.975 82.9242 139.975 84.1818C139.975 85.447 139.816 86.5265 139.498 87.4205C139.18 88.3106 138.719 88.9905 138.117 89.4602C137.515 89.9261 136.786 90.1591 135.93 90.1591ZM135.93 88.9091C136.778 88.9091 137.437 88.5 137.907 87.6818C138.377 86.8636 138.612 85.697 138.612 84.1818C138.612 83.1742 138.504 82.3163 138.288 81.608C138.076 80.8996 137.769 80.3598 137.367 79.9886C136.969 79.6174 136.49 79.4318 135.93 79.4318C135.089 79.4318 134.432 79.8466 133.958 80.6761C133.485 81.5019 133.248 82.6705 133.248 84.1818C133.248 85.1894 133.354 86.0455 133.566 86.75C133.778 87.4545 134.083 87.9905 134.481 88.358C134.882 88.7254 135.365 88.9091 135.93 88.9091ZM148.066 87.8182V87.2045C148.066 86.7803 148.153 86.392 148.327 86.0398C148.505 85.6837 148.763 85.3996 149.1 85.1875C149.441 84.9716 149.854 84.8636 150.339 84.8636C150.831 84.8636 151.244 84.9716 151.577 85.1875C151.911 85.3996 152.163 85.6837 152.333 86.0398C152.504 86.392 152.589 86.7803 152.589 87.2045V87.8182C152.589 88.2424 152.502 88.6326 152.327 88.9886C152.157 89.3409 151.903 89.625 151.566 89.8409C151.233 90.053 150.824 90.1591 150.339 90.1591C149.846 90.1591 149.432 90.053 149.094 89.8409C148.757 89.625 148.502 89.3409 148.327 88.9886C148.153 88.6326 148.066 88.2424 148.066 87.8182ZM149.225 87.2045V87.8182C149.225 88.1705 149.308 88.4867 149.475 88.767C149.642 89.0436 149.93 89.1818 150.339 89.1818C150.737 89.1818 151.017 89.0436 151.18 88.767C151.346 88.4867 151.43 88.1705 151.43 87.8182V87.2045C151.43 86.8523 151.35 86.5379 151.191 86.2614C151.032 85.9811 150.748 85.8409 150.339 85.8409C149.941 85.8409 149.655 85.9811 149.481 86.2614C149.31 86.5379 149.225 86.8523 149.225 87.2045ZM142.271 81.1591V80.5455C142.271 80.1212 142.358 79.733 142.532 79.3807C142.71 79.0246 142.968 78.7405 143.305 78.5284C143.646 78.3125 144.058 78.2045 144.543 78.2045C145.036 78.2045 145.449 78.3125 145.782 78.5284C146.115 78.7405 146.367 79.0246 146.538 79.3807C146.708 79.733 146.793 80.1212 146.793 80.5455V81.1591C146.793 81.5833 146.706 81.9735 146.532 82.3295C146.362 82.6818 146.108 82.9659 145.771 83.1818C145.437 83.3939 145.028 83.5 144.543 83.5C144.051 83.5 143.636 83.3939 143.299 83.1818C142.962 82.9659 142.706 82.6818 142.532 82.3295C142.358 81.9735 142.271 81.5833 142.271 81.1591ZM143.43 80.5455V81.1591C143.43 81.5114 143.513 81.8277 143.68 82.108C143.846 82.3845 144.134 82.5227 144.543 82.5227C144.941 82.5227 145.221 82.3845 145.384 82.108C145.551 81.8277 145.634 81.5114 145.634 81.1591V80.5455C145.634 80.1932 145.555 79.8788 145.396 79.6023C145.237 79.322 144.952 79.1818 144.543 79.1818C144.146 79.1818 143.86 79.322 143.685 79.6023C143.515 79.8788 143.43 80.1932 143.43 80.5455ZM142.702 90L150.702 78.3636H151.998L143.998 90H142.702Z" fill="black"/>
<path d="M238.334 40.6699C238.334 42.509 239.826 43.9999 241.667 43.9999C243.508 43.9999 245 42.509 245 40.6699C245 38.8308 243.508 37.3398 241.667 37.3398M242.5 26.1843C243.217 25.9157 243.556 25.1521 243.217 24.5375C242.914 23.9863 242.244 23.9 241.667 24.0944M225 40.6699C225 42.5091 223.508 44 221.667 44C219.826 44 218.334 42.5091 218.334 40.6699M218.334 40.6699L218.627 40.6698C218.985 40.6698 219.34 40.7275 219.68 40.8405L220.614 41.1516C221.297 41.3793 222.036 41.3793 222.72 41.1516L223.654 40.8405C223.994 40.7275 224.349 40.6698 224.707 40.6698H231.667M218.334 40.6699C216.493 40.6699 214.946 39.1626 215.279 37.3518C215.991 33.4654 218.142 30.6797 222.5 30.6797M227.5 40.6697H234.167M234.167 40.6697H240.039C241.218 40.6697 242.023 39.4784 241.585 38.3835L241.404 37.9319C241.082 37.1268 241.431 36.2089 242.207 35.8214L242.577 35.6365C243.438 35.2063 243.757 34.138 243.272 33.3063L238.334 24.8333M234.167 40.6697C240.96 40.6697 237.5 30.6667 238.334 24.8333M234.167 40.6697C230 40.6697 229.69 30.6797 224.167 30.6797M238.334 24.8333L237.198 24.4636C236.414 24.2083 235.561 24.565 235.192 25.3025L235 25.6846M230 35.6747L230.935 32.8738C231.295 31.7945 230.492 30.6796 229.354 30.6796H219.167C218.247 30.6796 217.5 29.9335 217.5 29.013V27.3496M223.334 35.6748C223.334 36.5944 222.587 37.3398 221.667 37.3398C220.747 37.3398 220 36.5944 220 35.6748C220 34.7552 220.747 34.0098 221.667 34.0098C222.587 34.0098 223.334 34.7552 223.334 35.6748Z" stroke="#FA5A00" stroke-width="2" stroke-linecap="round" stroke-linejoin="round"/>
<path d="M206.842 67.3636V79H205.433V67.3636H206.842ZM210.826 73.75V79H209.485V70.2727H210.781V71.6364H210.894C211.099 71.1932 211.409 70.8371 211.826 70.5682C212.243 70.2955 212.781 70.1591 213.44 70.1591C214.031 70.1591 214.548 70.2803 214.991 70.5227C215.434 70.7614 215.779 71.125 216.025 71.6136C216.271 72.0985 216.394 72.7121 216.394 73.4545V79H215.053V73.5455C215.053 72.8598 214.875 72.3258 214.519 71.9432C214.163 71.5568 213.674 71.3636 213.053 71.3636C212.625 71.3636 212.243 71.4564 211.906 71.642C211.572 71.8277 211.309 72.0985 211.116 72.4545C210.923 72.8106 210.826 73.2424 210.826 73.75ZM225.026 72.2273L223.822 72.5682C223.746 72.3674 223.634 72.1723 223.487 71.983C223.343 71.7898 223.146 71.6307 222.896 71.5057C222.646 71.3807 222.326 71.3182 221.935 71.3182C221.401 71.3182 220.956 71.4413 220.6 71.6875C220.248 71.9299 220.072 72.2386 220.072 72.6136C220.072 72.947 220.193 73.2102 220.435 73.4034C220.678 73.5966 221.057 73.7576 221.572 73.8864L222.867 74.2045C223.647 74.3939 224.229 74.6837 224.612 75.0739C224.994 75.4602 225.185 75.9583 225.185 76.5682C225.185 77.0682 225.041 77.5152 224.754 77.9091C224.469 78.303 224.072 78.6136 223.56 78.8409C223.049 79.0682 222.454 79.1818 221.776 79.1818C220.886 79.1818 220.149 78.9886 219.566 78.6023C218.983 78.2159 218.613 77.6515 218.458 76.9091L219.731 76.5909C219.852 77.0606 220.081 77.4129 220.418 77.6477C220.759 77.8826 221.204 78 221.754 78C222.379 78 222.875 77.8674 223.242 77.6023C223.613 77.3333 223.799 77.0114 223.799 76.6364C223.799 76.3333 223.693 76.0795 223.481 75.875C223.269 75.6667 222.943 75.5114 222.504 75.4091L221.049 75.0682C220.25 74.8788 219.663 74.5852 219.288 74.1875C218.916 73.786 218.731 73.2841 218.731 72.6818C218.731 72.1894 218.869 71.7538 219.146 71.375C219.426 70.9962 219.807 70.6989 220.288 70.483C220.772 70.267 221.322 70.1591 221.935 70.1591C222.799 70.1591 223.477 70.3485 223.969 70.7273C224.466 71.1061 224.818 71.6061 225.026 72.2273ZM230.999 70.2727V71.4091H226.477V70.2727H230.999ZM227.795 68.1818H229.136V76.5C229.136 76.8788 229.191 77.1629 229.3 77.3523C229.414 77.5379 229.558 77.6629 229.732 77.7273C229.91 77.7879 230.098 77.8182 230.295 77.8182C230.442 77.8182 230.564 77.8106 230.658 77.7955C230.753 77.7765 230.829 77.7614 230.886 77.75L231.158 78.9545C231.067 78.9886 230.941 79.0227 230.778 79.0568C230.615 79.0947 230.408 79.1136 230.158 79.1136C229.78 79.1136 229.408 79.0322 229.045 78.8693C228.685 78.7064 228.386 78.4583 228.147 78.125C227.912 77.7917 227.795 77.3712 227.795 76.8636V68.1818ZM235.585 79.2045C235.031 79.2045 234.53 79.1004 234.079 78.892C233.628 78.6799 233.27 78.375 233.005 77.9773C232.74 77.5758 232.607 77.0909 232.607 76.5227C232.607 76.0227 232.706 75.6174 232.903 75.3068C233.1 74.9924 233.363 74.7462 233.692 74.5682C234.022 74.3902 234.386 74.2576 234.783 74.1705C235.185 74.0795 235.588 74.0076 235.994 73.9545C236.524 73.8864 236.954 73.8352 237.283 73.8011C237.617 73.7633 237.859 73.7008 238.011 73.6136C238.166 73.5265 238.244 73.375 238.244 73.1591V73.1136C238.244 72.553 238.09 72.1174 237.783 71.8068C237.48 71.4962 237.02 71.3409 236.403 71.3409C235.763 71.3409 235.261 71.4811 234.897 71.7614C234.533 72.0417 234.278 72.3409 234.13 72.6591L232.857 72.2045C233.085 71.6742 233.388 71.2614 233.766 70.9659C234.149 70.6667 234.566 70.4583 235.016 70.3409C235.471 70.2197 235.918 70.1591 236.357 70.1591C236.638 70.1591 236.96 70.1932 237.323 70.2614C237.691 70.3258 238.045 70.4602 238.386 70.6648C238.73 70.8693 239.016 71.178 239.244 71.5909C239.471 72.0038 239.585 72.5568 239.585 73.25V79H238.244V77.8182H238.175C238.085 78.0076 237.933 78.2102 237.721 78.4261C237.509 78.642 237.227 78.8258 236.874 78.9773C236.522 79.1288 236.092 79.2045 235.585 79.2045ZM235.789 78C236.319 78 236.766 77.8958 237.13 77.6875C237.497 77.4792 237.774 77.2102 237.96 76.8807C238.149 76.5511 238.244 76.2045 238.244 75.8409V74.6136C238.187 74.6818 238.062 74.7443 237.869 74.8011C237.679 74.8542 237.46 74.9015 237.21 74.9432C236.963 74.9811 236.723 75.0152 236.488 75.0455C236.257 75.072 236.069 75.0947 235.925 75.1136C235.577 75.1591 235.251 75.233 234.948 75.3352C234.649 75.4337 234.406 75.5833 234.221 75.7841C234.039 75.9811 233.948 76.25 233.948 76.5909C233.948 77.0568 234.121 77.4091 234.465 77.6477C234.814 77.8826 235.255 78 235.789 78ZM243.373 73.75V79H242.032V70.2727H243.327V71.6364H243.441C243.646 71.1932 243.956 70.8371 244.373 70.5682C244.79 70.2955 245.327 70.1591 245.987 70.1591C246.577 70.1591 247.094 70.2803 247.538 70.5227C247.981 70.7614 248.326 71.125 248.572 71.6136C248.818 72.0985 248.941 72.7121 248.941 73.4545V79H247.6V73.5455C247.6 72.8598 247.422 72.3258 247.066 71.9432C246.71 71.5568 246.221 71.3636 245.6 71.3636C245.172 71.3636 244.79 71.4564 244.452 71.642C244.119 71.8277 243.856 72.0985 243.663 72.4545C243.469 72.8106 243.373 73.2424 243.373 73.75ZM255.187 70.2727V71.4091H250.664V70.2727H255.187ZM251.982 68.1818H253.323V76.5C253.323 76.8788 253.378 77.1629 253.488 77.3523C253.602 77.5379 253.746 77.6629 253.92 77.7273C254.098 77.7879 254.285 77.8182 254.482 77.8182C254.63 77.8182 254.751 77.8106 254.846 77.7955C254.941 77.7765 255.016 77.7614 255.073 77.75L255.346 78.9545C255.255 78.9886 255.128 79.0227 254.965 79.0568C254.802 79.0947 254.596 79.1136 254.346 79.1136C253.967 79.1136 253.596 79.0322 253.232 78.8693C252.872 78.7064 252.573 78.4583 252.335 78.125C252.1 77.7917 251.982 77.3712 251.982 76.8636V68.1818ZM204.585 96.1818C203.858 96.1818 203.216 95.9981 202.659 95.6307C202.102 95.2595 201.667 94.7367 201.352 94.0625C201.038 93.3845 200.881 92.5833 200.881 91.6591C200.881 90.7424 201.038 89.947 201.352 89.2727C201.667 88.5985 202.104 88.0777 202.665 87.7102C203.225 87.3428 203.873 87.1591 204.608 87.1591C205.176 87.1591 205.625 87.2538 205.955 87.4432C206.288 87.6288 206.542 87.8409 206.716 88.0795C206.894 88.3144 207.032 88.5076 207.131 88.6591H207.244V84.3636H208.585V96H207.29V94.6591H207.131C207.032 94.8182 206.892 95.0189 206.71 95.2614C206.528 95.5 206.269 95.714 205.932 95.9034C205.595 96.089 205.146 96.1818 204.585 96.1818ZM204.767 94.9773C205.305 94.9773 205.759 94.8371 206.131 94.5568C206.502 94.2727 206.784 93.8807 206.977 93.3807C207.17 92.8769 207.267 92.2955 207.267 91.6364C207.267 90.9848 207.172 90.4148 206.983 89.9261C206.794 89.4337 206.513 89.0511 206.142 88.7784C205.771 88.5019 205.313 88.3636 204.767 88.3636C204.199 88.3636 203.725 88.5095 203.347 88.8011C202.972 89.089 202.689 89.4811 202.5 89.9773C202.314 90.4697 202.222 91.0227 202.222 91.6364C202.222 92.2576 202.316 92.822 202.506 93.3295C202.699 93.8333 202.983 94.2348 203.358 94.5341C203.737 94.8295 204.206 94.9773 204.767 94.9773ZM214.886 96.1818C214.045 96.1818 213.32 95.9962 212.71 95.625C212.104 95.25 211.636 94.7273 211.307 94.0568C210.981 93.3826 210.818 92.5985 210.818 91.7045C210.818 90.8106 210.981 90.0227 211.307 89.3409C211.636 88.6553 212.095 88.1212 212.682 87.7386C213.273 87.3523 213.962 87.1591 214.75 87.1591C215.205 87.1591 215.653 87.2348 216.097 87.3864C216.54 87.5379 216.943 87.7841 217.307 88.125C217.67 88.4621 217.96 88.9091 218.176 89.4659C218.392 90.0227 218.5 90.7083 218.5 91.5227V92.0909H211.773V90.9318H217.136C217.136 90.4394 217.038 90 216.841 89.6136C216.648 89.2273 216.371 88.9223 216.011 88.6989C215.655 88.4754 215.235 88.3636 214.75 88.3636C214.216 88.3636 213.754 88.4962 213.364 88.7614C212.977 89.0227 212.68 89.3636 212.472 89.7841C212.263 90.2045 212.159 90.6553 212.159 91.1364V91.9091C212.159 92.5682 212.273 93.1269 212.5 93.5852C212.731 94.0398 213.051 94.3864 213.46 94.625C213.869 94.8598 214.345 94.9773 214.886 94.9773C215.239 94.9773 215.557 94.928 215.841 94.8295C216.129 94.7273 216.377 94.5758 216.585 94.375C216.794 94.1705 216.955 93.9167 217.068 93.6136L218.364 93.9773C218.227 94.4167 217.998 94.803 217.676 95.1364C217.354 95.4659 216.956 95.7235 216.483 95.9091C216.009 96.0909 215.477 96.1818 214.886 96.1818ZM221.881 84.3636V96H220.54V84.3636H221.881ZM224.337 96V87.2727H225.678V96H224.337ZM225.018 85.8182C224.757 85.8182 224.532 85.7292 224.342 85.5511C224.157 85.3731 224.064 85.1591 224.064 84.9091C224.064 84.6591 224.157 84.4451 224.342 84.267C224.532 84.089 224.757 84 225.018 84C225.28 84 225.503 84.089 225.689 84.267C225.878 84.4451 225.973 84.6591 225.973 84.9091C225.973 85.1591 225.878 85.3731 225.689 85.5511C225.503 85.7292 225.28 85.8182 225.018 85.8182ZM235.27 87.2727L232.043 96H230.679L227.452 87.2727H228.906L231.315 94.2273H231.406L233.815 87.2727H235.27ZM240.386 96.1818C239.545 96.1818 238.82 95.9962 238.21 95.625C237.604 95.25 237.136 94.7273 236.807 94.0568C236.481 93.3826 236.318 92.5985 236.318 91.7045C236.318 90.8106 236.481 90.0227 236.807 89.3409C237.136 88.6553 237.595 88.1212 238.182 87.7386C238.773 87.3523 239.462 87.1591 240.25 87.1591C240.705 87.1591 241.153 87.2348 241.597 87.3864C242.04 87.5379 242.443 87.7841 242.807 88.125C243.17 88.4621 243.46 88.9091 243.676 89.4659C243.892 90.0227 244 90.7083 244 91.5227V92.0909H237.273V90.9318H242.636C242.636 90.4394 242.538 90 242.341 89.6136C242.148 89.2273 241.871 88.9223 241.511 88.6989C241.155 88.4754 240.735 88.3636 240.25 88.3636C239.716 88.3636 239.254 88.4962 238.864 88.7614C238.477 89.0227 238.18 89.3636 237.972 89.7841C237.763 90.2045 237.659 90.6553 237.659 91.1364V91.9091C237.659 92.5682 237.773 93.1269 238 93.5852C238.231 94.0398 238.551 94.3864 238.96 94.625C239.369 94.8598 239.845 94.9773 240.386 94.9773C240.739 94.9773 241.057 94.928 241.341 94.8295C241.629 94.7273 241.877 94.5758 242.085 94.375C242.294 94.1705 242.455 93.9167 242.568 93.6136L243.864 93.9773C243.727 94.4167 243.498 94.803 243.176 95.1364C242.854 95.4659 242.456 95.7235 241.983 95.9091C241.509 96.0909 240.977 96.1818 240.386 96.1818ZM246.04 96V87.2727H247.335V88.5909H247.426C247.585 88.1591 247.873 87.8087 248.29 87.5398C248.706 87.2708 249.176 87.1364 249.699 87.1364C249.797 87.1364 249.92 87.1383 250.068 87.142C250.216 87.1458 250.328 87.1515 250.403 87.1591V88.5227C250.358 88.5114 250.254 88.4943 250.091 88.4716C249.932 88.4451 249.763 88.4318 249.585 88.4318C249.161 88.4318 248.782 88.5208 248.449 88.6989C248.119 88.8731 247.858 89.1155 247.665 89.4261C247.475 89.733 247.381 90.0833 247.381 90.4773V96H246.04ZM253.122 99.2727C252.895 99.2727 252.692 99.2538 252.514 99.2159C252.336 99.1818 252.213 99.1477 252.145 99.1136L252.486 97.9318C252.812 98.0152 253.099 98.0455 253.349 98.0227C253.599 98 253.821 97.8883 254.014 97.6875C254.211 97.4905 254.391 97.1705 254.554 96.7273L254.804 96.0455L251.577 87.2727H253.031L255.44 94.2273H255.531L257.94 87.2727H259.395L255.69 97.2727C255.524 97.7235 255.317 98.0966 255.071 98.392C254.825 98.6913 254.539 98.9129 254.213 99.0568C253.891 99.2008 253.527 99.2727 253.122 99.2727Z" fill="black"/>
</g>
<defs>
<filter id="filter0_d_619_27527" x="0" y="0" width="284" height="116" filterUnits="userSpaceOnUse" color-interpolation-filters="sRGB">
<feFlood flood-opacity="0" result="BackgroundImageFix"/>
<feColorMatrix in="SourceAlpha" type="matrix" values="0 0 0 0 0 0 0 0 0 0 0 0 0 0 0 0 0 0 127 0" result="hardAlpha"/>
<feOffset dy="1"/>
<feGaussianBlur stdDeviation="4"/>
<feComposite in2="hardAlpha" operator="out"/>
<feColorMatrix type="matrix" values="0 0 0 0 0 0 0 0 0 0 0 0 0 0 0 0 0 0 0.08 0"/>
<feBlend mode="normal" in2="BackgroundImageFix" result="effect1_dropShadow_619_27527"/>
<feBlend mode="normal" in="SourceGraphic" in2="effect1_dropShadow_619_27527" result="shape"/>
</filter>
<clipPath id="clip0_619_27527">
<rect width="24" height="24" fill="white" transform="translate(125.5 27)"/>
</clipPath>
</defs>
</svg>
